<svg width="20" height="18" viewBox="0 0 20 18" fill="none" xmlns="http://www.w3.org/2000/svg">
<path d="M13.9687 11.9757L15.0799 10.8646C15.2535 10.691 15.5556 10.8125 15.5556 11.0625V16.1111C15.5556 17.0313 14.809 17.7778 13.8889 17.7778H1.66667C0.746528 17.7778 0 17.0313 0 16.1111V3.88889C0 2.96875 0.746528 2.22222 1.66667 2.22222H11.1632C11.4097 2.22222 11.5347 2.52084 11.3611 2.69792L10.25 3.80903C10.1979 3.86111 10.1285 3.88889 10.0521 3.88889H1.66667V16.1111H13.8889V12.1701C13.8889 12.0972 13.9167 12.0278 13.9687 11.9757ZM19.4062 4.96875L10.2882 14.0868L7.1493 14.434C6.23958 14.5347 5.46528 13.7674 5.56597 12.8507L5.91319 9.71181L15.0312 0.593753C15.8264 -0.201386 17.1111 -0.201386 17.9028 0.593753L19.4028 2.09375C20.1979 2.88889 20.1979 4.17709 19.4062 4.96875ZM15.9757 6.04167L13.9583 4.02431L7.50694 10.4792L7.25347 12.7465L9.52083 12.4931L15.9757 6.04167ZM18.2257 3.27431L16.7257 1.77431C16.5833 1.63195 16.3507 1.63195 16.2118 1.77431L15.1389 2.84722L17.1562 4.86459L18.2292 3.79167C18.3681 3.64584 18.3681 3.41667 18.2257 3.27431Z" fill="#F8F8F8"/>
</svg>
