<svg width="174" height="25" viewBox="0 0 174 25" fill="none" xmlns="http://www.w3.org/2000/svg">
<path d="M0.5 24V0.727272H17.2727V5.81818H6.81818V9.81818H16.4091V14.9091H6.81818V18.9091H17.2273V24H0.5ZM40.5426 0.727272V24H35.2699L26.8608 11.7727H26.7244V24H20.4062V0.727272H25.7699L34.0426 12.9091H34.2244V0.727272H40.5426ZM58.6449 8.40909C58.5464 8.00758 58.3911 7.6553 58.179 7.35227C57.9669 7.04167 57.7017 6.7803 57.3835 6.56818C57.0729 6.34848 56.7093 6.18561 56.2926 6.07954C55.8835 5.96591 55.4328 5.90909 54.9403 5.90909C53.8797 5.90909 52.9744 6.16288 52.2244 6.67045C51.482 7.17803 50.9138 7.90909 50.5199 8.86364C50.1335 9.81818 49.9403 10.9697 49.9403 12.3182C49.9403 13.6818 50.1259 14.8485 50.4972 15.8182C50.8684 16.7879 51.4214 17.5303 52.1562 18.0455C52.8911 18.5606 53.804 18.8182 54.8949 18.8182C55.857 18.8182 56.6563 18.678 57.2926 18.3977C57.9366 18.1174 58.4176 17.7197 58.7358 17.2045C59.054 16.6894 59.2131 16.0833 59.2131 15.3864L60.304 15.5H54.9858V11H65.304V14.2273C65.304 16.3485 64.8532 18.1629 63.9517 19.6705C63.0578 21.1705 61.8229 22.322 60.2472 23.125C58.679 23.9205 56.8797 24.3182 54.8494 24.3182C52.5843 24.3182 50.5956 23.8371 48.8835 22.875C47.1714 21.9129 45.8343 20.5417 44.8722 18.7614C43.9176 16.9811 43.4403 14.8636 43.4403 12.4091C43.4403 10.4848 43.732 8.7803 44.3153 7.29545C44.9063 5.81061 45.7244 4.55682 46.7699 3.53409C47.8153 2.50379 49.0237 1.72727 50.3949 1.20454C51.7661 0.674241 53.2358 0.40909 54.804 0.40909C56.1828 0.40909 57.4631 0.60606 58.6449 1C59.8343 1.38636 60.8835 1.93939 61.7926 2.65909C62.7093 3.37121 63.4479 4.21591 64.0085 5.19318C64.5691 6.17045 64.91 7.24242 65.0312 8.40909H58.6449ZM68.25 24V0.727272H74.5682V18.9091H83.9773V24H68.25Z" fill="white"/>
<path d="M86.5312 24V0.727272H96.5767C98.304 0.727272 99.8153 1.04167 101.111 1.67045C102.406 2.29924 103.414 3.20455 104.134 4.38636C104.853 5.56818 105.213 6.98485 105.213 8.63636C105.213 10.303 104.842 11.7083 104.099 12.8523C103.365 13.9962 102.33 14.8598 100.997 15.4432C99.6714 16.0265 98.1222 16.3182 96.3494 16.3182H90.3494V11.4091H95.0767C95.8191 11.4091 96.4517 11.3182 96.9744 11.1364C97.5047 10.947 97.91 10.6477 98.1903 10.2386C98.4782 9.82955 98.6222 9.29545 98.6222 8.63636C98.6222 7.9697 98.4782 7.42803 98.1903 7.01136C97.91 6.58712 97.5047 6.27651 96.9744 6.07954C96.4517 5.875 95.8191 5.77273 95.0767 5.77273H92.8494V24H86.5312ZM100.168 13.3182L105.986 24H99.1222L93.4403 13.3182H100.168ZM121.679 0.727272H127.997V15.6364C127.997 17.4091 127.573 18.9432 126.724 20.2386C125.884 21.5265 124.709 22.5227 123.202 23.2273C121.694 23.9242 119.944 24.2727 117.952 24.2727C115.944 24.2727 114.187 23.9242 112.679 23.2273C111.171 22.5227 109.997 21.5265 109.156 20.2386C108.323 18.9432 107.906 17.4091 107.906 15.6364V0.727272H114.224V15.0909C114.224 15.8106 114.384 16.4545 114.702 17.0227C115.02 17.5833 115.459 18.0227 116.02 18.3409C116.588 18.6591 117.232 18.8182 117.952 18.8182C118.679 18.8182 119.323 18.6591 119.884 18.3409C120.444 18.0227 120.884 17.5833 121.202 17.0227C121.52 16.4545 121.679 15.8106 121.679 15.0909V0.727272ZM143.545 8C143.485 7.24242 143.201 6.65151 142.693 6.22727C142.193 5.80303 141.432 5.59091 140.409 5.59091C139.758 5.59091 139.223 5.67045 138.807 5.82954C138.398 5.98106 138.095 6.18939 137.898 6.45454C137.701 6.7197 137.598 7.02273 137.591 7.36364C137.576 7.64394 137.625 7.89773 137.739 8.125C137.86 8.3447 138.049 8.54545 138.307 8.72727C138.564 8.90151 138.894 9.06061 139.295 9.20455C139.697 9.34848 140.174 9.47727 140.727 9.59091L142.636 10C143.924 10.2727 145.027 10.6326 145.943 11.0795C146.86 11.5265 147.61 12.053 148.193 12.6591C148.777 13.2576 149.205 13.9318 149.477 14.6818C149.758 15.4318 149.902 16.25 149.909 17.1364C149.902 18.6667 149.519 19.9621 148.761 21.0227C148.004 22.0833 146.92 22.8902 145.511 23.4432C144.11 23.9962 142.424 24.2727 140.455 24.2727C138.432 24.2727 136.667 23.9735 135.159 23.375C133.659 22.7765 132.492 21.8561 131.659 20.6136C130.833 19.3636 130.417 17.7652 130.409 15.8182H136.409C136.447 16.5303 136.625 17.1288 136.943 17.6136C137.261 18.0985 137.708 18.4659 138.284 18.7159C138.867 18.9659 139.561 19.0909 140.364 19.0909C141.038 19.0909 141.602 19.0076 142.057 18.8409C142.511 18.6742 142.856 18.4432 143.091 18.1477C143.326 17.8523 143.447 17.5152 143.455 17.1364C143.447 16.7803 143.33 16.4697 143.102 16.2045C142.883 15.9318 142.519 15.6894 142.011 15.4773C141.504 15.2576 140.818 15.053 139.955 14.8636L137.636 14.3636C135.576 13.9167 133.951 13.1705 132.761 12.125C131.58 11.072 130.992 9.63636 131 7.81818C130.992 6.34091 131.386 5.04924 132.182 3.94318C132.985 2.82954 134.095 1.96212 135.511 1.34091C136.936 0.719696 138.568 0.40909 140.409 0.40909C142.288 0.40909 143.913 0.723484 145.284 1.35227C146.655 1.98106 147.712 2.86742 148.455 4.01136C149.205 5.14773 149.583 6.47727 149.591 8H143.545ZM152.312 24V0.727272H158.631V9.81818H166.994V0.727272H173.312V24H166.994V14.9091H158.631V24H152.312Z" fill="#C5F513"/>
</svg>
