<svg width="70" height="70" viewBox="0 0 70 70" fill="none" xmlns="http://www.w3.org/2000/svg">
<circle cx="35" cy="35" r="35" fill="white"/>
<path d="M42.296 33.056C47.691 34.6333 52.4296 37.9164 55.8016 42.4135C59.1736 46.9105 60.9976 52.3792 61 58H9C9.00115 52.3788 10.8246 46.9095 14.1968 42.4123C17.569 37.915 22.3083 34.6321 27.704 33.056L35 44L42.296 33.056ZM48 19C48 22.4478 46.6304 25.7544 44.1924 28.1924C41.7544 30.6304 38.4478 32 35 32C31.5522 32 28.2456 30.6304 25.8076 28.1924C23.3696 25.7544 22 22.4478 22 19C22 15.5522 23.3696 12.2456 25.8076 9.80761C28.2456 7.36964 31.5522 6 35 6C38.4478 6 41.7544 7.36964 44.1924 9.80761C46.6304 12.2456 48 15.5522 48 19Z" fill="black"/>
</svg>
